<?xml version="1.0" standalone="no"?>
<!DOCTYPE svg PUBLIC "-//W3C//DTD SVG 20010904//EN"
 "http://www.w3.org/TR/2001/REC-SVG-20010904/DTD/svg10.dtd">
<svg version="1.0" xmlns="http://www.w3.org/2000/svg"
 width="128.000000pt" height="128.000000pt" viewBox="0 0 128.000000 128.000000"
 preserveAspectRatio="xMidYMid meet">
<metadata>
Created by potrace 1.11, written by Peter Selinger 2001-2013
</metadata>
<g transform="translate(0.000000,128.000000) scale(0.100000,-0.100000)"
fill="#000000" stroke="none">
<path d="M0 640 l0 -640 640 0 640 0 0 640 0 640 -640 0 -640 0 0 -640z m620
550 c0 -5 -4 -10 -10 -10 -5 0 -10 -9 -10 -20 0 -11 5 -20 10 -20 6 0 10 -18
10 -40 0 -22 5 -40 10 -40 6 0 10 -9 10 -20 0 -12 -7 -20 -16 -20 -20 0 -44
24 -44 44 0 9 -4 16 -10 16 -20 0 -11 70 13 95 24 26 37 31 37 15z m120 -140
c0 -5 7 -10 15 -10 9 0 28 -12 42 -26 20 -21 23 -28 12 -34 -7 -5 -10 -12 -6
-17 5 -4 12 -1 16 6 7 11 17 6 45 -22 20 -20 36 -43 36 -52 0 -8 5 -15 10 -15
15 0 12 -58 -2 -63 -8 -2 -9 -8 -4 -13 5 -5 11 -4 13 4 3 6 9 12 14 12 14 0
11 -78 -3 -83 -8 -2 -9 -8 -4 -13 5 -5 11 -4 13 4 3 6 9 12 14 12 14 0 11 -38
-3 -42 -9 -3 -8 -10 5 -22 10 -10 21 -15 25 -12 3 4 0 11 -7 16 -11 6 -8 13
12 34 14 14 29 26 32 26 11 0 4 -59 -7 -64 -10 -5 -10 -7 0 -12 19 -9 14 -35
-10 -56 -19 -16 -20 -21 -8 -29 11 -8 12 -12 3 -16 -7 -2 -13 -13 -13 -24 0
-12 -7 -19 -20 -19 -11 0 -20 -4 -20 -10 0 -5 5 -10 10 -10 6 0 10 -9 10 -20
0 -11 -4 -20 -10 -20 -5 0 -10 -7 -10 -15 0 -20 -65 -85 -85 -85 -8 0 -15 -4
-15 -10 0 -5 -9 -10 -20 -10 -11 0 -20 -4 -20 -10 0 -6 -37 -10 -90 -10 -53 0
-90 4 -90 10 0 6 -13 10 -30 10 -16 0 -30 5 -30 10 0 6 -8 10 -18 10 -10 0
-24 9 -32 20 -8 11 -20 20 -27 20 -8 0 -34 21 -60 46 -35 35 -42 48 -32 55 10
6 8 12 -10 28 l-24 21 23 20 c13 11 20 23 16 27 -4 4 -11 1 -16 -6 -7 -12 -11
-11 -26 3 -14 15 -15 19 -3 27 12 8 12 10 0 18 -12 8 -12 12 2 25 20 20 27 20
27 1 0 -15 42 -65 55 -65 3 0 5 13 5 29 0 16 6 32 13 34 9 4 8 8 -3 17 -11 9
-12 13 -2 17 6 2 12 13 12 23 0 10 -6 20 -12 23 -9 3 -5 11 11 26 13 11 21 24
17 28 -4 4 -11 1 -16 -7 -5 -8 -13 -11 -17 -6 -4 5 -2 11 5 13 6 3 12 13 12
24 0 21 16 26 23 7 2 -8 8 -9 13 -4 5 5 4 11 -3 13 -12 4 -19 43 -8 43 3 0 18
-12 32 -26 20 -21 23 -28 12 -34 -7 -5 -10 -12 -6 -17 5 -4 13 -1 18 7 8 11
12 12 16 3 2 -7 13 -13 23 -13 10 0 20 -6 23 -12 2 -8 8 -9 13 -4 5 5 4 11 -3
13 -19 7 -16 23 3 23 9 0 25 10 35 22 11 11 22 18 26 14 4 -4 1 -11 -7 -16 -8
-5 -11 -12 -8 -16 10 -9 38 21 38 40 0 9 -4 16 -10 16 -5 0 -10 9 -10 20 0 11
5 20 10 20 6 0 10 12 10 26 0 15 10 35 22 45 l21 19 -21 19 c-27 23 -28 31 -2
31 11 0 20 -4 20 -10z m-20 -40 c0 -5 -4 -10 -10 -10 -5 0 -10 5 -10 10 0 6 5
10 10 10 6 0 10 -4 10 -10z m-360 -560 c15 -16 35 -30 44 -30 9 0 16 -7 16
-16 0 -19 -24 -44 -42 -44 -8 0 -20 -9 -28 -20 -8 -11 -22 -20 -32 -20 -11 0
-18 -7 -18 -20 0 -13 7 -20 20 -20 11 0 20 5 20 10 0 6 14 10 30 10 17 0 30
-4 30 -10 0 -5 9 -10 20 -10 11 0 20 -4 20 -10 0 -5 9 -10 20 -10 13 0 20 -7
20 -19 0 -11 5 -21 12 -23 8 -3 2 -15 -17 -33 -18 -19 -30 -25 -33 -17 -4 14
-62 16 -62 2 0 -18 -31 -10 -55 15 -17 16 -25 35 -25 57 0 22 -7 39 -20 48
-22 16 -27 46 -7 53 9 4 8 8 -3 16 -13 10 -13 12 0 21 13 9 13 11 1 19 -12 8
-11 12 3 27 14 14 19 15 26 4 7 -11 12 -10 25 4 10 9 14 20 10 24 -4 4 -10 1
-12 -5 -7 -20 -23 -15 -23 7 0 29 28 25 60 -10z m640 -29 c0 -11 6 -22 13 -24
9 -4 8 -8 -3 -16 -13 -9 -13 -12 -1 -20 12 -8 12 -12 -2 -26 -15 -15 -19 -13
-52 20 -32 31 -34 37 -21 50 8 8 22 15 30 15 9 0 16 5 16 10 0 6 5 10 10 10 6
0 10 -9 10 -19z m-14 -115 c22 -23 17 -74 -11 -101 -20 -21 -34 -25 -80 -25
-54 0 -55 1 -55 28 0 16 8 34 20 42 11 8 20 22 20 32 0 13 8 18 30 18 17 0 30
5 30 10 0 15 29 12 46 -4z m-306 -21 c0 -20 65 -85 85 -85 8 0 15 -9 15 -20 0
-27 -28 -26 -51 2 l-19 21 -19 -21 c-20 -24 -66 -29 -75 -9 -5 10 -7 10 -12 0
-5 -13 -104 -19 -104 -8 0 11 49 55 61 55 6 0 24 14 39 30 15 17 35 30 44 30
9 0 16 5 16 10 0 6 5 10 10 10 6 0 10 -7 10 -15z m40 -115 c0 -5 -4 -10 -10
-10 -5 0 -10 5 -10 10 0 6 5 10 10 10 6 0 10 -4 10 -10z m100 0 c0 -5 -4 -10
-10 -10 -5 0 -10 5 -10 10 0 6 5 10 10 10 6 0 10 -4 10 -10z"/>
<path d="M760 1010 c0 -5 5 -10 10 -10 6 0 10 5 10 10 0 6 -4 10 -10 10 -5 0
-10 -4 -10 -10z"/>
<path d="M860 910 c0 -5 5 -10 10 -10 6 0 10 5 10 10 0 6 -4 10 -10 10 -5 0
-10 -4 -10 -10z"/>
<path d="M480 710 c0 -5 5 -10 10 -10 6 0 10 5 10 10 0 6 -4 10 -10 10 -5 0
-10 -4 -10 -10z"/>
<path d="M980 630 c0 -5 5 -10 10 -10 6 0 10 5 10 10 0 6 -4 10 -10 10 -5 0
-10 -4 -10 -10z"/>
<path d="M333 265 c-19 -21 -16 -33 14 -63 17 -17 28 -22 31 -14 2 7 12 12 23
12 10 0 19 5 19 10 0 6 5 10 10 10 6 0 10 -9 10 -20 0 -11 5 -20 10 -20 21 0
9 32 -25 65 -36 37 -71 44 -92 20z m73 -19 c19 -20 18 -26 -5 -26 -11 0 -21
-6 -23 -12 -6 -17 -38 14 -38 36 0 20 46 21 66 2z"/>
<path d="M360 230 c0 -5 5 -10 10 -10 6 0 10 5 10 10 0 6 -4 10 -10 10 -5 0
-10 -4 -10 -10z"/>
<path d="M903 255 c-13 -13 -23 -31 -23 -40 0 -24 48 -18 76 10 22 22 23 27
10 40 -20 21 -37 18 -63 -10z m57 -1 c0 -11 -29 -34 -44 -34 -19 0 -20 6 -3
25 12 14 47 21 47 9z"/>
</g>
</svg>
